HIERARCHY
ROOT Hips
{
	OFFSET 0.000000 0.000000 0.000000
	CHANNELS 6 Xposition Yposition Zposition Zrotation Yrotation Xrotation 
	JOINT LHipJoint
	{
		OFFSET 0.000000 0.000000 0.000000
		CHANNELS 3 Zrotation Yrotation Xrotation
		JOINT LeftUpLeg
		{
			OFFSET 1.363060 -1.794630 0.839290
			CHANNELS 3 Zrotation Yrotation Xrotation
			JOINT LeftLeg
			{
				OFFSET 2.448110 -6.726130 0.000000
				CHANNELS 3 Zrotation Yrotation Xrotation
				JOINT LeftFoot
				{
					OFFSET 2.562200 -7.039590 0.000000
					CHANNELS 3 Zrotation Yrotation Xrotation
					JOINT LeftToeBase
					{
						OFFSET 0.157640 -0.433110 2.322550
						CHANNELS 3 Zrotation Yrotation Xrotation
						End Site
						{
							OFFSET 0.000000 0.000000 0.000000
						}
					}
				}
			}
		}
	}
	JOINT RHipJoint
	{
		OFFSET 0.000000 0.000000 0.000000
		CHANNELS 3 Zrotation Yrotation Xrotation
		JOINT RightUpLeg
		{
			OFFSET -1.305520 -1.794630 0.839290
			CHANNELS 3 Zrotation Yrotation Xrotation
			JOINT RightLeg
			{
				OFFSET -2.542530 -6.985550 0.000000
				CHANNELS 3 Zrotation Yrotation Xrotation
				JOINT RightFoot
				{
					OFFSET -2.568260 -7.056230 0.000000
					CHANNELS 3 Zrotation Yrotation Xrotation
					JOINT RightToeBase
					{
						OFFSET -0.164730 -0.452590 2.363150
						CHANNELS 3 Zrotation Yrotation Xrotation
						End Site
						{
							OFFSET 0.000000 0.000000 0.000000
						}
					}
				}
			}
		}
	}
}
MOTION
Frames: 22
Frame Time: 0.008333
1.746713 16.252050 2.104134 -79.913880 -78.106258 123.197636 -9.124496 -6.702907 -6.216062 -5.677350 3.235714 -69.090020 -1.680512 3.496455 48.535853 2.777192 9.403608 -20.442775 -1.897399 -0.000000 -29.702400 6.654972 1.348862 8.735293 -3.317066 7.903960 -118.826095 6.456314 5.043477 -14.587276 -0.061615 -2.100570 6.378163 -2.130700 0.000000 -71.880600
1.748818 16.202422 2.097838 -80.647582 -78.082533 123.979470 -9.050623 -6.692701 -6.234633 -5.667025 3.151484 -69.637195 -1.628782 3.600698 49.550851 2.842561 9.623405 -20.929164 -2.027200 0.000000 -29.635501 6.709928 1.397791 8.736251 -3.737107 7.635073 -118.362692 6.332013 4.903083 -14.252111 0.004133 -1.891035 6.832955 -2.071101 0.000000 -73.321900
1.750065 16.156309 2.092542 -81.409968 -78.027957 124.751270 -8.988942 -6.680988 -6.231977 -5.612178 3.082618 -70.116749 -1.572361 3.692005 50.492307 2.909654 9.859033 -21.386810 -2.157000 -0.000000 -29.566900 6.771924 1.410618 8.713373 -3.990982 7.510976 -117.885267 6.296052 4.642945 -13.419438 0.167449 -1.366463 7.730292 -1.917500 0.000001 -75.090200
1.750352 16.114739 2.088380 -82.106505 -77.954245 125.400604 -8.943195 -6.666870 -6.206945 -5.520520 3.017918 -70.498166 -1.512373 3.766951 51.344255 2.976204 10.101861 -21.812880 -2.285200 0.000000 -29.485600 6.824648 1.402909 8.646518 -4.038893 7.500779 -117.306591 6.329946 4.294609 -12.257718 0.424832 -0.501916 9.014968 -1.628301 -0.000000 -76.766601
1.749219 16.078446 2.085283 -82.657823 -77.875618 125.842712 -8.915420 -6.648876 -6.158555 -5.402964 2.945288 -70.763807 -1.450494 3.823050 52.093040 3.040162 10.343230 -22.203419 -2.409500 -0.000000 -29.384100 6.856120 1.389255 8.525509 -3.880329 7.557990 -116.544840 6.403222 3.896994 -10.952945 0.750509 0.658508 10.582109 -1.181100 -0.000000 -77.971400
1.746425 16.048015 2.082872 -83.016112 -77.805481 126.031245 -8.905002 -6.624733 -6.086972 -5.273513 2.854420 -70.909275 -1.388853 3.859034 52.727707 3.099731 10.574628 -22.553490 -2.526799 0.000000 -29.260100 6.859599 1.380950 8.350612 -3.540994 7.637209 -115.535946 6.484130 3.492183 -9.675003 1.103195 2.013161 12.284068 -0.586200 0.000000 -78.482700
1.741509 16.023787 2.080470 -83.173189 -77.756891 125.969594 -8.907912 -6.589608 -5.994450 -5.152725 2.740468 -70.940800 -1.330867 3.875170 53.238555 3.153117 10.786090 -22.857689 -2.633700 0.000000 -29.120900 6.836511 1.383589 8.132320 -3.053823 7.710814 -114.260343 6.551955 3.116126 -8.535145 1.439171 3.428126 13.943568 0.108200 -0.000000 -78.304600
1.734413 16.005871 2.077926 -83.097524 -77.735092 125.644302 -8.923961 -6.545186 -5.879006 -5.039968 2.590490 -70.879499 -1.276244 3.871431 53.624255 3.200518 10.977399 -23.110236 -2.727800 -0.000000 -28.961100 6.789220 1.396562 7.885574 -2.461174 7.752215 -112.718736 6.592234 2.797031 -7.614159 1.719287 4.735738 15.425143 0.811300 0.000001 -77.596500
1.724689 15.994210 2.074167 -82.838010 -77.749737 125.121012 -8.945340 -6.483701 -5.746070 -4.964051 2.412635 -70.742212 -1.230077 3.850663 53.878713 3.239731 11.134837 -23.306418 -2.804700 0.000000 -28.805101 6.731792 1.415142 7.628091 -1.779138 7.774282 -110.979135 6.610585 2.538155 -6.870735 1.924152 5.806797 16.588843 1.427200 -0.000000 -76.692600
1.712245 15.988534 2.068775 -82.404648 -77.802728 124.428023 -8.969569 -6.404672 -5.596076 -4.929734 2.206053 -70.552890 -1.193142 3.814819 54.004993 3.270574 11.255606 -23.441870 -2.861900 0.000000 -28.664900 6.675213 1.431268 7.374416 -1.027033 7.780908 -109.110531 6.611457 2.332318 -6.243415 2.043783 6.520382 17.371284 1.861000 -0.000000 -75.858401
1.697075 15.988474 2.061364 -81.815026 -77.893581 123.597096 -8.994457 -6.308070 -5.431039 -4.941136 1.976880 -70.330842 -1.166613 3.766503 54.008029 3.292343 11.334681 -23.514722 -2.897300 0.000000 -28.552699 6.629430 1.436231 7.135153 -0.218605 7.781551 -107.185774 6.599549 2.163235 -5.641541 2.075520 6.789685 17.754746 2.042900 0.000001 -75.333900
1.679339 15.993555 2.051526 -81.099895 -78.021272 122.665285 -9.017039 -6.193086 -5.253617 -5.003921 1.732490 -70.091015 -1.151505 3.708296 53.894677 3.304638 11.368893 -23.524857 -2.909600 0.000000 -28.482000 6.603465 1.421312 6.916208 0.642886 7.788074 -105.287072 6.581053 2.005834 -4.938895 2.022796 6.585602 17.744880 1.947500 -0.000000 -75.206700
1.659408 16.003267 2.039732 -80.231721 -78.175357 121.608385 -9.041246 -6.067119 -5.064267 -5.098794 1.477142 -69.840725 -1.145578 3.641590 53.676700 3.307691 11.361040 -23.473946 -2.899400 0.000000 -28.461900 6.594924 1.378729 6.714600 1.554786 7.800011 -103.450077 6.555499 1.842528 -4.056973 1.884838 5.900823 17.384351 1.579099 0.000000 -75.411500
1.637365 16.016927 2.025551 -79.249657 -78.357530 120.463175 -9.062988 -5.926540 -4.866821 -5.237534 1.217866 -69.580912 -1.150158 3.568566 53.364074 3.301618 11.310569 -23.368326 -2.868400 0.000000 -28.493400 6.608962 1.303220 6.525722 2.530688 7.824153 -101.751587 6.529154 1.640762 -2.847202 1.670960 4.818343 16.708152 0.998200 0.000000 -75.830500
1.613755 16.033977 2.009139 -78.153008 -78.563958 119.217797 -9.082949 -5.773806 -4.663056 -5.413720 0.956817 -69.304422 -1.163853 3.490051 52.968613 3.287561 11.224335 -23.215625 -2.820001 0.000000 -28.566100 6.641084 1.194122 6.335730 3.576124 7.848528 -100.217381 6.500036 1.376830 -1.221535 1.387852 3.435171 15.774093 0.279400 -0.000000 -76.196900
1.589047 16.053846 1.991039 -76.916825 -78.786982 117.834017 -9.104726 -5.613936 -4.452974 -5.612572 0.693946 -68.999700 -1.183938 3.406347 52.504125 3.266772 11.111018 -23.023563 -2.758100 -0.000001 -28.682300 6.682021 1.055203 6.125661 4.686746 7.849471 -98.838014 6.460135 1.033894 0.856948 1.043430 1.852990 14.675060 -0.500900 0.000000 -76.415200
1.563803 16.075956 1.971464 -75.543450 -79.022752 116.297497 -9.129150 -5.448689 -4.236782 -5.828307 0.430467 -68.655938 -1.208648 3.318272 51.984611 3.240853 10.979587 -22.802054 -2.687200 -0.000001 -28.832800 6.724700 0.895760 5.876416 5.842810 7.799273 -97.599246 6.398470 0.597317 3.410607 0.653753 0.190072 13.501329 -1.268701 0.000000 -76.338500
1.538263 16.099782 1.950370 -74.064369 -79.268379 114.630980 -9.154466 -5.277808 -4.015401 -6.059967 0.169886 -68.266067 -1.237166 3.226734 51.419753 3.211835 10.839444 -22.561273 -2.611800 -0.000001 -28.990201 6.763560 0.732633 5.575978 6.983042 7.672100 -96.457027 6.295461 0.070436 6.392320 0.236988 -1.459251 12.328890 -1.972800 -0.000000 -75.708600
1.512795 16.124892 1.928164 -72.496377 -79.512293 112.846201 -9.182783 -5.106245 -3.788140 -6.290135 -0.082462 -67.831037 -1.266839 3.132850 50.822461 3.181377 10.699817 -22.307219 -2.534900 0.000000 -29.155200 6.790627 0.581795 5.217553 8.051716 7.454880 -95.349855 6.135814 -0.526565 9.699384 -0.184176 -3.021068 11.241201 -2.582800 -0.000001 -74.577300
1.487686 16.150926 1.905109 -70.884270 -79.742962 110.989827 -9.214439 -4.938013 -3.555625 -6.504141 -0.319248 -67.360517 -1.295808 3.038075 50.203827 3.150995 10.567566 -22.045792 -2.458600 0.000000 -29.321400 6.802201 0.457206 4.805289 8.998466 7.154641 -94.221682 5.912546 -1.161216 13.205760 -0.584005 -4.430620 10.285655 -3.080700 0.000000 -73.063901
1.462994 16.177588 1.881488 -69.280800 -79.949855 109.124068 -9.249664 -4.776837 -3.319217 -6.687925 -0.534141 -66.867924 -1.322470 2.943553 49.571966 3.122016 10.448463 -21.780107 -2.384399 0.000000 -29.486300 6.798743 0.366086 4.351041 9.799523 6.795329 -93.032998 5.631529 -1.797870 16.788911 -0.936019 -5.624553 9.471118 -3.452600 -0.000000 -71.356601
1.434065 16.196787 1.881885 -63.272395 -79.932369 103.111010 -9.619039 -4.814362 -2.704848 -6.122601 -1.525617 -66.870411 -1.209446 2.807117 49.082755 3.105987 10.428246 -21.335500 -2.267500 -0.000001 -29.941500 6.534869 0.090056 3.797204 11.132803 5.870234 -92.012621 5.529380 -2.462557 20.383612 -1.183433 -6.440739 8.578626 -3.643900 0.000000 -69.626700
